<svg width="1600" height="980" viewBox="0 0 1600 980" fill="none" xmlns="http://www.w3.org/2000/svg">
  <defs>
    <linearGradient id="bg" x1="216" y1="72" x2="1326" y2="896" gradientUnits="userSpaceOnUse">
      <stop stop-color="#151A24"/>
      <stop offset="0.52" stop-color="#10151E"/>
      <stop offset="1" stop-color="#0B0F15"/>
    </linearGradient>
    <radialGradient id="glow1" cx="0" cy="0" r="1" gradientUnits="userSpaceOnUse" gradientTransform="translate(355 185) rotate(37.2) scale(540 310)">
      <stop stop-color="#E0A85D" stop-opacity="0.28"/>
      <stop offset="1" stop-color="#E0A85D" stop-opacity="0"/>
    </radialGradient>
    <radialGradient id="glow2" cx="0" cy="0" r="1" gradientUnits="userSpaceOnUse" gradientTransform="translate(1236 164) rotate(142.1) scale(410 270)">
      <stop stop-color="#86C5FF" stop-opacity="0.22"/>
      <stop offset="1" stop-color="#86C5FF" stop-opacity="0"/>
    </radialGradient>
    <radialGradient id="glow3" cx="0" cy="0" r="1" gradientUnits="userSpaceOnUse" gradientTransform="translate(813 662) rotate(90) scale(316 524)">
      <stop stop-color="#D79649" stop-opacity="0.15"/>
      <stop offset="1" stop-color="#D79649" stop-opacity="0"/>
    </radialGradient>
    <linearGradient id="ring" x1="517" y1="214" x2="1109" y2="766" gradientUnits="userSpaceOnUse">
      <stop stop-color="#F0C084"/>
      <stop offset="0.48" stop-color="#F3E4CF"/>
      <stop offset="1" stop-color="#7FB8FF"/>
    </linearGradient>
    <linearGradient id="core" x1="648" y1="325" x2="959" y2="668" gradientUnits="userSpaceOnUse">
      <stop stop-color="#FFE0A9" stop-opacity="0.92"/>
      <stop offset="0.45" stop-color="#F2B86B" stop-opacity="0.72"/>
      <stop offset="1" stop-color="#76B8FF" stop-opacity="0.66"/>
    </linearGradient>
    <filter id="blurXL" x="178" y="28" width="1241" height="902" filterUnits="userSpaceOnUse" color-interpolation-filters="sRGB">
      <feGaussianBlur stdDeviation="36"/>
    </filter>
    <filter id="blurSoft" x="482" y="178" width="640" height="640" filterUnits="userSpaceOnUse" color-interpolation-filters="sRGB">
      <feGaussianBlur stdDeviation="10"/>
    </filter>
    <filter id="shadow" x="381" y="126" width="838" height="728" filterUnits="userSpaceOnUse" color-interpolation-filters="sRGB">
      <feDropShadow dx="0" dy="28" stdDeviation="34" flood-color="#000000" flood-opacity="0.35"/>
    </filter>
  </defs>

  <rect width="1600" height="980" rx="38" fill="url(#bg)"/>
  <rect width="1600" height="980" rx="38" fill="url(#glow1)"/>
  <rect width="1600" height="980" rx="38" fill="url(#glow2)"/>
  <rect width="1600" height="980" rx="38" fill="url(#glow3)"/>

  <g opacity="0.28">
    <path d="M0 828C251 694 462 666 754 754C1031 836 1234 798 1600 606" stroke="#293445" stroke-width="1.2"/>
    <path d="M0 734C299 598 518 576 772 651C1106 751 1318 703 1600 555" stroke="#293445" stroke-width="1.2"/>
    <path d="M0 642C248 521 453 486 720 561C1065 658 1292 620 1600 472" stroke="#293445" stroke-width="1.2"/>
    <path d="M0 548C285 438 482 404 730 476C1062 573 1280 534 1600 388" stroke="#293445" stroke-width="1.2"/>
  </g>

  <g filter="url(#blurXL)" opacity="0.55">
    <ellipse cx="811" cy="490" rx="332" ry="242" fill="#0F1520"/>
  </g>

  <g filter="url(#shadow)">
    <path d="M798 208L1026 340L1026 604L798 736L570 604L570 340L798 208Z" fill="rgba(255,255,255,0.02)" stroke="url(#ring)" stroke-width="2.4"/>
    <path d="M798 275L969 373V571L798 669L627 571V373L798 275Z" fill="rgba(255,255,255,0.03)" stroke="rgba(255,255,255,0.18)" stroke-width="1.4"/>
    <path d="M798 335L914 403V537L798 605L682 537V403L798 335Z" fill="url(#core)" fill-opacity="0.18" stroke="rgba(255,235,204,0.7)" stroke-width="1.5"/>
  </g>

  <g filter="url(#blurSoft)">
    <circle cx="798" cy="470" r="112" fill="#F4BE78" fill-opacity="0.24"/>
    <circle cx="836" cy="512" r="84" fill="#7FB8FF" fill-opacity="0.18"/>
  </g>

  <g opacity="0.8">
    <path d="M798 180V802" stroke="rgba(255,255,255,0.08)" stroke-width="1.2"/>
    <path d="M523 342L1074 661" stroke="rgba(255,255,255,0.06)" stroke-width="1.2"/>
    <path d="M1073 341L524 659" stroke="rgba(255,255,255,0.06)" stroke-width="1.2"/>
  </g>

  <g opacity="0.92">
    <circle cx="798" cy="470" r="9" fill="#FFF4E3"/>
    <circle cx="798" cy="470" r="21" stroke="rgba(255,244,227,0.45)"/>
    <circle cx="798" cy="470" r="46" stroke="rgba(217,155,73,0.24)"/>
    <circle cx="798" cy="470" r="82" stroke="rgba(127,184,255,0.18)"/>
  </g>

  <g opacity="0.62">
    <circle cx="570" cy="340" r="6.5" fill="#F0C084"/>
    <circle cx="1026" cy="340" r="6.5" fill="#F0C084"/>
    <circle cx="570" cy="604" r="6.5" fill="#7FB8FF"/>
    <circle cx="1026" cy="604" r="6.5" fill="#7FB8FF"/>
    <circle cx="798" cy="208" r="6.5" fill="#FFF0D7"/>
    <circle cx="798" cy="736" r="6.5" fill="#FFF0D7"/>
  </g>

  <g opacity="0.44">
    <path d="M1115 250C1188 266 1234 300 1271 358" stroke="#7FB8FF" stroke-width="1.3" stroke-linecap="round"/>
    <path d="M1237 610C1196 670 1146 707 1060 732" stroke="#E0A85D" stroke-width="1.3" stroke-linecap="round"/>
    <path d="M343 681C420 654 465 621 517 564" stroke="#7FB8FF" stroke-width="1.3" stroke-linecap="round"/>
    <path d="M414 294C468 322 514 364 553 427" stroke="#E0A85D" stroke-width="1.3" stroke-linecap="round"/>
  </g>

  <g opacity="0.86">
    <text x="144" y="812" fill="#F4EEE4" fill-opacity="0.96" font-family="Inter, system-ui, sans-serif" font-size="88" font-weight="700" letter-spacing="-3.2">Ash Foundry</text>
    <text x="149" y="866" fill="#C9C0B4" font-family="Inter, system-ui, sans-serif" font-size="28" font-weight="500" letter-spacing="0.2">continuity • artifacts • memory • design language</text>
  </g>
</svg>
