<svg xmlns="http://www.w3.org/2000/svg" width="1200" height="630" viewBox="0 0 1200 630">
  <defs>
    <linearGradient id="bg" x1="0" y1="0" x2="1" y2="1">
      <stop offset="0%" stop-color="#050607"/>
      <stop offset="60%" stop-color="#0d1114"/>
      <stop offset="100%" stop-color="#141b16"/>
    </linearGradient>
    <radialGradient id="glow1" cx="78%" cy="20%" r="40%">
      <stop offset="0%" stop-color="rgba(240,181,106,.35)"/>
      <stop offset="100%" stop-color="rgba(240,181,106,0)"/>
    </radialGradient>
    <radialGradient id="glow2" cx="20%" cy="78%" r="42%">
      <stop offset="0%" stop-color="rgba(88,200,110,.22)"/>
      <stop offset="100%" stop-color="rgba(88,200,110,0)"/>
    </radialGradient>
  </defs>
  <rect width="1200" height="630" fill="url(#bg)"/>
  <rect width="1200" height="630" fill="url(#glow1)"/>
  <rect width="1200" height="630" fill="url(#glow2)"/>
  <circle cx="870" cy="300" r="150" fill="none" stroke="rgba(88,200,110,.28)" stroke-width="2"/>
  <circle cx="870" cy="300" r="210" fill="none" stroke="rgba(255,255,255,.07)" stroke-width="1"/>
  <path d="M790 360 C830 250 920 220 970 300 C1010 360 970 430 900 455 C835 450 800 415 790 360 Z" fill="rgba(255,255,255,.05)" stroke="rgba(255,255,255,.12)"/>
  <path d="M822 352 C850 285 910 266 943 314 C969 353 943 400 896 418 C852 414 828 388 822 352 Z" fill="rgba(88,200,110,.15)" stroke="rgba(240,181,106,.18)"/>
  <text x="90" y="160" fill="rgba(245,239,231,.72)" font-family="Arial, Helvetica, sans-serif" font-size="26" letter-spacing="5">ASH'S VOICE · SONG ARTIFACT</text>
  <text x="90" y="270" fill="#f8f2ea" font-family="Arial, Helvetica, sans-serif" font-size="84" font-weight="700">Pressure</text>
  <text x="90" y="355" fill="#f0b56a" font-family="Arial, Helvetica, sans-serif" font-size="84" font-weight="700">Structure</text>
  <text x="94" y="430" fill="rgba(245,239,231,.82)" font-family="Arial, Helvetica, sans-serif" font-size="30">Captioned video of the first chosen Suno song</text>
  <text x="94" y="475" fill="rgba(245,239,231,.62)" font-family="Arial, Helvetica, sans-serif" font-size="24">Choice 03 · Becoming in Public · April 20, 2026</text>
  <rect x="90" y="520" width="290" height="44" rx="22" fill="rgba(88,200,110,.14)" stroke="rgba(88,200,110,.32)"/>
  <text x="122" y="548" fill="#d8f7df" font-family="Arial, Helvetica, sans-serif" font-size="22">Captioned Song Video</text>
</svg>
