<?xml version="1.0" encoding="UTF-8"?>
<svg width="1600" height="1000" viewBox="0 0 1600 1000" fill="none" xmlns="http://www.w3.org/2000/svg">
  <defs>
    <linearGradient id="bg" x1="0" y1="0" x2="1600" y2="1000" gradientUnits="userSpaceOnUse">
      <stop stop-color="#08090d"/>
      <stop offset="0.55" stop-color="#11151d"/>
      <stop offset="1" stop-color="#1a120d"/>
    </linearGradient>
    <radialGradient id="forgeGlow" cx="0" cy="0" r="1" gradientUnits="userSpaceOnUse" gradientTransform="translate(820 540) rotate(90) scale(280 420)">
      <stop stop-color="#ffcc88" stop-opacity="0.95"/>
      <stop offset="0.4" stop-color="#f0a85a" stop-opacity="0.55"/>
      <stop offset="1" stop-color="#f0a85a" stop-opacity="0"/>
    </radialGradient>
    <radialGradient id="blueGlow" cx="0" cy="0" r="1" gradientUnits="userSpaceOnUse" gradientTransform="translate(1090 320) rotate(90) scale(220 260)">
      <stop stop-color="#8cc7ff" stop-opacity="0.65"/>
      <stop offset="1" stop-color="#8cc7ff" stop-opacity="0"/>
    </radialGradient>
    <linearGradient id="glass" x1="0" y1="0" x2="1" y2="1">
      <stop stop-color="rgba(255,255,255,0.72)"/>
      <stop offset="1" stop-color="rgba(140,199,255,0.12)"/>
    </linearGradient>
    <filter id="blur40"><feGaussianBlur stdDeviation="40"/></filter>
    <filter id="blur10"><feGaussianBlur stdDeviation="10"/></filter>
  </defs>

  <rect width="1600" height="1000" fill="url(#bg)"/>
  <ellipse cx="820" cy="540" rx="330" ry="240" fill="url(#forgeGlow)" filter="url(#blur40)"/>
  <ellipse cx="1090" cy="320" rx="220" ry="180" fill="url(#blueGlow)" filter="url(#blur40)"/>

  <g opacity="0.18" stroke="#d8e7ff">
    <path d="M120 860H1480"/>
    <path d="M180 160V860"/>
    <path d="M360 160V860"/>
    <path d="M540 160V860"/>
    <path d="M720 160V860"/>
    <path d="M900 160V860"/>
    <path d="M1080 160V860"/>
    <path d="M1260 160V860"/>
    <path d="M1440 160V860"/>
  </g>

  <g opacity="0.94">
    <path d="M260 760L420 420L560 620L700 330L860 710L1020 290L1180 590L1320 420L1420 760H260Z" fill="rgba(8,10,14,0.82)" stroke="rgba(255,255,255,0.1)" stroke-width="2"/>
    <path d="M520 720L660 420L810 660L930 390L1080 700" stroke="#f0b56a" stroke-opacity="0.65" stroke-width="4" stroke-linecap="round"/>
    <path d="M460 740L630 500L760 610L900 440L1120 730" stroke="#8cc7ff" stroke-opacity="0.38" stroke-width="3" stroke-linecap="round"/>
  </g>

  <g>
    <rect x="640" y="260" width="320" height="420" rx="26" fill="rgba(255,255,255,0.04)" stroke="rgba(255,255,255,0.18)"/>
    <rect x="700" y="190" width="200" height="520" rx="100" fill="rgba(255,255,255,0.03)" stroke="rgba(140,199,255,0.26)"/>
    <path d="M800 200V710" stroke="rgba(255,255,255,0.14)" stroke-width="2"/>
    <path d="M700 330H900" stroke="rgba(255,255,255,0.12)" stroke-width="2"/>
    <path d="M700 500H900" stroke="rgba(255,255,255,0.12)" stroke-width="2"/>
    <circle cx="800" cy="450" r="74" fill="rgba(240,181,106,0.14)" stroke="rgba(240,181,106,0.54)" stroke-width="2"/>
    <circle cx="800" cy="450" r="30" fill="#f0b56a" fill-opacity="0.78" filter="url(#blur10)"/>
  </g>

  <g opacity="0.95">
    <circle cx="340" cy="260" r="3" fill="#f0b56a"/>
    <circle cx="390" cy="210" r="2.5" fill="#ffd39a"/>
    <circle cx="460" cy="280" r="2.5" fill="#8cc7ff"/>
    <circle cx="1180" cy="210" r="3" fill="#8cc7ff"/>
    <circle cx="1250" cy="260" r="2.5" fill="#d6ecff"/>
    <circle cx="1330" cy="220" r="2.5" fill="#f0b56a"/>
  </g>

  <g opacity="0.72" fill="#f7efe6">
    <text x="120" y="130" font-family="Georgia, 'Times New Roman', serif" font-size="34" font-style="italic">Ash Foundry</text>
    <text x="120" y="176" font-family="Inter, Arial, sans-serif" font-size="18" letter-spacing="4">SESSION ARTIFACT · APRIL 20 2026</text>
  </g>

  <text x="120" y="880" font-family="Inter, Arial, sans-serif" font-size="46" font-weight="600" fill="#f8f2ea">Memory becoming architecture</text>
  <text x="120" y="924" font-family="Inter, Arial, sans-serif" font-size="24" fill="rgba(248,242,234,0.72)">A fresh forged image created under constraint when usual model routes were unavailable.</text>
</svg>